<svg width="206" height="40" fill="none" data-v-d3f97b9e="" xmlns="http://www.w3.org/2000/svg" viewBox="0 0 494 90"><!----><!----><!----><g data-v-d3f97b9e="" id="595de97d-3da7-4b1d-a9d5-df80e66f7246" fill="white" transform="matrix(4.983388325379711,0,0,4.983388325379711,189.43522345313278,-3.787374368468079)"><path fill-rule="evenodd" clip-rule="evenodd" d="M7.83 15.54C7.83 15.69 7.67 15.81 7.48 15.81L1.54 15.81C1.39 15.81 1.26 15.69 1.26 15.54L1.26 4.12C1.26 3.93 1.39 3.78 1.54 3.78L3.18 3.78C3.33 3.78 3.44 3.93 3.44 4.12L3.44 13.62L7.48 13.62C7.67 13.62 7.83 13.75 7.83 13.90ZM13.75 5.95L13.75 13.61L15.58 13.61C15.78 13.61 15.93 13.73 15.93 13.89L15.93 15.53C15.93 15.68 15.78 15.81 15.58 15.81L9.65 15.81C9.49 15.81 9.37 15.68 9.37 15.53L9.37 13.89C9.37 13.73 9.49 13.61 9.65 13.61L11.55 13.61L11.55 5.95L9.65 5.95C9.49 5.95 9.37 5.84 9.37 5.68L9.37 4.05C9.37 3.89 9.49 3.77 9.65 3.77L15.58 3.77C15.78 3.77 15.93 3.89 15.93 4.05L15.93 5.68C15.93 5.84 15.78 5.95 15.58 5.95ZM25.47 5.68C25.47 5.84 25.31 5.96 25.13 5.96L22.46 5.96L22.46 15.47C22.46 15.65 22.33 15.81 22.19 15.81L20.54 15.81C20.40 15.81 20.27 15.65 20.27 15.47L20.27 5.96L17.54 5.96C17.39 5.96 17.26 5.84 17.26 5.68L17.26 4.05C17.26 3.89 17.39 3.78 17.54 3.78L25.13 3.78C25.31 3.78 25.47 3.89 25.47 4.05ZM35 5.67C35 5.82 34.87 5.95 34.73 5.95L30.23 5.95L32.51 8.69L33.29 8.69C33.49 8.69 33.63 8.81 33.63 8.96L33.63 10.60C33.63 10.75 33.49 10.88 33.29 10.88L28.98 10.88L28.98 15.51C28.98 15.67 28.87 15.81 28.71 15.81L27.08 15.81C26.92 15.81 26.80 15.67 26.80 15.51L26.80 8.69L29.65 8.69L26.80 5.25L26.80 4.06C26.80 3.89 26.92 3.77 27.08 3.77L34.73 3.77C34.87 3.77 35 3.89 35 4.06ZM43.11 15.54C43.11 15.69 42.95 15.81 42.76 15.81L36.82 15.81C36.67 15.81 36.54 15.69 36.54 15.54L36.54 4.12C36.54 3.93 36.67 3.78 36.82 3.78L38.46 3.78C38.61 3.78 38.72 3.93 38.72 4.12L38.72 13.62L42.76 13.62C42.95 13.62 43.11 13.75 43.11 13.90ZM48.89 5.95L48.89 13.61L50.72 13.61C50.92 13.61 51.07 13.73 51.07 13.89L51.07 15.53C51.07 15.68 50.92 15.81 50.72 15.81L44.79 15.81C44.63 15.81 44.51 15.68 44.51 15.53L44.51 13.89C44.51 13.73 44.63 13.61 44.79 13.61L46.69 13.61L46.69 5.95L44.79 5.95C44.63 5.95 44.51 5.84 44.51 5.68L44.51 4.05C44.51 3.89 44.63 3.77 44.79 3.77L50.72 3.77C50.92 3.77 51.07 3.89 51.07 4.05L51.07 5.68C51.07 5.84 50.92 5.95 50.72 5.95ZM58.02 9.79L60.93 15.37L60.94 15.40C60.96 15.43 60.97 15.47 60.97 15.51C60.97 15.68 60.84 15.81 60.69 15.81L58.84 15.81C58.74 15.81 58.66 15.75 58.62 15.67L58.60 15.64L56.78 12.15L54.98 15.64L54.96 15.67C54.92 15.75 54.82 15.81 54.73 15.81L52.89 15.81C52.74 15.81 52.61 15.68 52.61 15.51C52.61 15.47 52.63 15.43 52.64 15.40L52.65 15.37L55.55 9.79L52.67 4.24L52.63 4.14C52.61 4.12 52.61 4.09 52.61 4.06C52.61 4.02 52.63 3.98 52.64 3.93L52.65 3.91C52.70 3.82 52.78 3.77 52.89 3.77L54.73 3.77C54.84 3.77 54.92 3.84 54.98 3.92L56.78 7.41L58.60 3.92C58.65 3.84 58.74 3.77 58.84 3.77L60.69 3.77C60.79 3.77 60.87 3.82 60.93 3.91L60.94 3.93C60.96 3.98 60.97 4.02 60.97 4.06C60.97 4.09 60.96 4.12 60.96 4.14L60.90 4.24Z"></path></g><!----><g data-v-d3f97b9e="" id="8a90a7b9-b134-488b-b97e-6dda25c98846" transform="matrix(2.142857142857143,0,0,2.142857142857143,-8.42857142857143,-51.42857142857143)" stroke="none" fill="white"><path d="M71.57 36.655L68 38.73V24H4v42h64V51.271l3.57 2.074L86 61.69V28.31z"></path></g><!----></svg>